<?xml version="1.0" encoding="UTF-8" standalone="no"?><!DOCTYPE svg PUBLIC "-//W3C//DTD SVG 1.1//EN" "http://www.w3.org/Graphics/SVG/1.1/DTD/svg11.dtd"><svg width="100%" height="100%" viewBox="0 0 200 200" version="1.1" xmlns="http://www.w3.org/2000/svg" xmlns:xlink="http://www.w3.org/1999/xlink" xml:space="preserve" xmlns:serif="http://www.serif.com/" style="fill-rule:evenodd;clip-rule:evenodd;stroke-linecap:round;stroke-linejoin:round;stroke-miterlimit:1.5;"><g><text id="Draw" x="86.544px" y="121.431px" style="font-family:'Athelas-BoldItalic', 'Athelas';font-weight:700;font-style:italic;font-size:37.913px;fill:#c96;">D<tspan x="116.34px 130.705px 150.269px " y="121.431px 121.431px 121.431px ">raw</tspan></text><text id="Can" x="92.779px" y="86.721px" style="font-family:'Athelas-BoldItalic', 'Athelas';font-weight:700;font-style:italic;font-size:20.22px;fill:#c96;">C<tspan x="106.291px 116.724px " y="86.721px 86.721px ">an</tspan></text><g id="U"><path d="M29.068,78.93c0,0 -2.861,42.856 28.603,42.856c30.511,0 28.604,-42.856 28.604,-42.856" style="fill:none;stroke:#c96;stroke-width:1.5px;"/><path d="M35.192,78.93c0,0 -2.247,36.65 22.475,36.65c23.972,0 22.474,-36.65 22.474,-36.65" style="fill:none;stroke:#c96;stroke-width:1.5px;"/><path d="M41.998,78.93c0,0 -1.567,30.331 15.663,30.331c16.709,0 15.664,-30.331 15.664,-30.331" style="fill:none;stroke:#c96;stroke-width:1.5px;"/><path d="M29,78.93l12.96,0l-6.5,-6.93l-6.46,6.93Z" style="fill:#c96;stroke:#c96;stroke-width:1.5px;"/><path d="M74.839,78.93l11.46,0" style="fill:none;stroke:#c96;stroke-width:1.5px;"/><path d="M86.299,73.733c0,-0.957 -0.777,-1.733 -1.733,-1.733l-9.495,0c-0.956,0 -1.733,0.776 -1.733,1.733l0,3.465c0,0.956 0.777,1.732 1.733,1.732l9.495,0c0.956,0 1.733,-0.776 1.733,-1.732l0,-3.465Z" style="fill:none;stroke:#c96;stroke-width:1.5px;"/></g></g></svg>