<?xml version="1.0" encoding="UTF-8" standalone="no"?>
<svg
   xmlns:dc="http://purl.org/dc/elements/1.1/"
   xmlns:cc="http://creativecommons.org/ns#"
   xmlns:rdf="http://www.w3.org/1999/02/22-rdf-syntax-ns#"
   xmlns:svg="http://www.w3.org/2000/svg"
   xmlns="http://www.w3.org/2000/svg"
   xmlns:sodipodi="http://sodipodi.sourceforge.net/DTD/sodipodi-0.dtd"
   xmlns:inkscape="http://www.inkscape.org/namespaces/inkscape"
   width="100%"
   height="100%"
   viewBox="0 0 200 200"
   version="1.1"
   xml:space="preserve"
   style="fill-rule:evenodd;clip-rule:evenodd;stroke-linecap:round;stroke-linejoin:round;stroke-miterlimit:1.5;"
   id="svg98"
   sodipodi:docname="UCANDRAW.svg"
   inkscape:version="0.92.2 5c3e80d, 2017-08-06"><metadata
     id="metadata104"><rdf:RDF><cc:Work
         rdf:about=""><dc:format>image/svg+xml</dc:format><dc:type
           rdf:resource="http://purl.org/dc/dcmitype/StillImage" /></cc:Work></rdf:RDF></metadata><defs
     id="defs102" /><sodipodi:namedview
     pagecolor="#ffffff"
     bordercolor="#666666"
     borderopacity="1"
     objecttolerance="10"
     gridtolerance="10"
     guidetolerance="10"
     inkscape:pageopacity="0"
     inkscape:pageshadow="2"
     inkscape:window-width="1440"
     inkscape:window-height="785"
     id="namedview100"
     showgrid="false"
     inkscape:zoom="8"
     inkscape:cx="80.163153"
     inkscape:cy="108.42026"
     inkscape:window-x="0"
     inkscape:window-y="1"
     inkscape:window-maximized="1"
     inkscape:current-layer="svg98" /><g
     id="g96"><text
       id="Draw"
       x="86.544px"
       y="121.431px"
       style="font-family:'Athelas-BoldItalic', 'Athelas';font-weight:700;font-style:italic;font-size:37.913px;fill:#000000;fill-opacity:1.0;">D<tspan
   x="116.34px 130.705px 150.269px "
   y="121.431px 121.431px 121.431px "
   id="tspan77"
   style="fill:#000000;fill-opacity:1.0;">raw</tspan></text>
<text
       id="Can"
       x="92.779px"
       y="86.721px"
       style="font-family:'Athelas-BoldItalic', 'Athelas';font-weight:700;font-style:italic;font-size:20.22px;fill:#000000;fill-opacity:1.0;">C<tspan
   x="106.291px 116.724px "
   y="86.721px 86.721px "
   id="tspan80"
   style="fill:#000000;fill-opacity:1.0;">an</tspan></text>
<g
       id="U"><path
         d="M29.068,78.93c0,0 -2.861,42.856 28.603,42.856c30.511,0 28.604,-42.856 28.604,-42.856"
         style="fill:none;stroke:#000000;stroke-width:1.5px;stroke-opacity:1.0"
         id="path83" /><path
         d="M35.192,78.93c0,0 -2.247,36.65 22.475,36.65c23.972,0 22.474,-36.65 22.474,-36.65"
         style="fill:none;stroke:#000000;stroke-width:1.5px;stroke-opacity:1.0"
         id="path85" /><path
         d="M41.998,78.93c0,0 -1.567,30.331 15.663,30.331c16.709,0 15.664,-30.331 15.664,-30.331"
         style="fill:none;stroke:#000000;stroke-width:1.5px;stroke-opacity:1.0"
         id="path87" /><path
         d="M29,78.93l12.96,0l-6.5,-6.93l-6.46,6.93Z"
         style="fill:#000000;stroke:#000000;stroke-width:1.5px;stroke-opacity:1;fill-opacity:1.0"
         id="path89" /><path
         d="m 74.815,78.93 h 11.46"
         style="fill:none;stroke:#000000;stroke-width:1.5px;stroke-opacity:1"
         id="path91"
         inkscape:connector-curvature="0" /><path
         d="m 86.424,73.358 c 0,-0.957 -0.777,-1.733 -1.733,-1.733 h -9.495 c -0.956,0 -1.733,0.776 -1.733,1.733 v 3.465 c 0,0.956 0.777,1.732 1.733,1.732 h 1.304 8.191 c 0.956,0 1.733,-0.776 1.733,-1.732 z"
         style="fill:none;stroke:#000000;stroke-width:1.5px;stroke-opacity:1"
         id="path93"
         inkscape:connector-curvature="0"
         sodipodi:nodetypes="sssssscsss" /></g></g></svg>